<svg xmlns="http://www.w3.org/2000/svg" xmlns:xlink="http://www.w3.org/1999/xlink" width="643" zoomAndPan="magnify" viewBox="0 0 482.25 482.249988" height="643" preserveAspectRatio="xMidYMid meet" version="1.2"><defs><clipPath id="cbea13597d"><path d="M 27.292969 27.292969 L 454.449219 27.292969 L 454.449219 454.449219 L 27.292969 454.449219 Z M 27.292969 27.292969 "/></clipPath><clipPath id="59ed390bfa"><path d="M 81 276 L 401 276 L 401 454.449219 L 81 454.449219 Z M 81 276 "/></clipPath><clipPath id="c298febc58"><path d="M 0 0 L 481.5 0 L 481.5 481.5 L 0 481.5 Z M 0 0 "/></clipPath></defs><g id="e92e93e740"><g clip-rule="nonzero" clip-path="url(#cbea13597d)"><path style=" stroke:none;fill-rule:nonzero;fill:#afc5da;fill-opacity:1;" d="M 454.222656 240.757812 C 454.222656 295.367188 433.730469 345.175781 399.984375 382.921875 C 360.902344 426.683594 304.054688 454.21875 240.761719 454.21875 C 177.46875 454.21875 120.601562 426.683594 81.539062 382.921875 C 47.792969 345.175781 27.300781 295.367188 27.300781 240.757812 C 27.300781 122.875 122.859375 27.296875 240.761719 27.296875 C 358.644531 27.296875 454.222656 122.875 454.222656 240.757812 "/></g><path style=" stroke:none;fill-rule:nonzero;fill:#f2f2f2;fill-opacity:1;" d="M 240.761719 280.078125 C 279.449219 280.078125 314.6875 236.308594 314.6875 188.246094 C 314.6875 142.835938 305.90625 97.929688 240.761719 97.929688 C 175.609375 97.929688 166.824219 142.835938 166.824219 188.246094 C 166.824219 236.308594 202.066406 280.078125 240.761719 280.078125 "/><g clip-rule="nonzero" clip-path="url(#59ed390bfa)"><path style=" stroke:none;fill-rule:nonzero;fill:#f2f2f2;fill-opacity:1;" d="M 399.984375 382.921875 C 360.902344 426.683594 304.054688 454.21875 240.761719 454.21875 C 177.46875 454.21875 120.601562 426.683594 81.539062 382.921875 C 80.863281 356.558594 98.417969 295.476562 187.964844 276.671875 C 203.28125 292.308594 222.136719 301.148438 240.761719 301.148438 C 259.386719 301.148438 278.226562 292.308594 293.539062 276.671875 C 383.105469 295.476562 400.644531 356.558594 399.984375 382.921875 "/></g><g clip-rule="nonzero" clip-path="url(#c298febc58)"><path style=" stroke:none;fill-rule:nonzero;fill:#afc5da;fill-opacity:1;" d="M 240.75 478.375 C 109.710938 478.375 3.121094 371.789062 3.121094 240.75 C 3.121094 109.710938 109.710938 3.121094 240.75 3.121094 C 371.789062 3.121094 478.375 109.710938 478.375 240.75 C 478.375 371.789062 371.789062 478.375 240.75 478.375 Z M 240.75 0 C 108 0 0 108 0 240.75 C 0 373.5 108 481.5 240.75 481.5 C 373.5 481.5 481.5 373.5 481.5 240.75 C 481.5 108 373.5 0 240.75 0 "/></g></g></svg>